<mxfile host="app.diagrams.net" modified="2022-12-22T07:20:31.675Z" agent="5.0 (Windows NT 10.0; Win64; x64) AppleWebKit/537.36 (KHTML, like Gecko) Chrome/108.0.0.0 Safari/537.36" version="20.7.2" etag="ENZMFjXh3OcTZVlskkgP" type="github">
  <diagram id="alFNVVAyJ6gcqD0ao7Lb" name="Page-1">
    <mxGraphModel dx="1434" dy="756" grid="1" gridSize="10" guides="1" tooltips="1" connect="1" arrows="1" fold="1" page="1" pageScale="1" pageWidth="850" pageHeight="1100" math="0" shadow="0">
      <root>
        <mxCell id="0" />
        <mxCell id="1" parent="0" />
        <mxCell id="6TrTIMmduEvKYD4dqYju-3" value="" style="edgeStyle=orthogonalEdgeStyle;rounded=0;orthogonalLoop=1;jettySize=auto;html=1;" edge="1" parent="1" source="6TrTIMmduEvKYD4dqYju-1" target="6TrTIMmduEvKYD4dqYju-2">
          <mxGeometry relative="1" as="geometry" />
        </mxCell>
        <mxCell id="6TrTIMmduEvKYD4dqYju-1" value="Import Git Repo" style="rounded=1;whiteSpace=wrap;html=1;" vertex="1" parent="1">
          <mxGeometry x="360" y="370" width="120" height="60" as="geometry" />
        </mxCell>
        <mxCell id="6TrTIMmduEvKYD4dqYju-5" value="" style="edgeStyle=orthogonalEdgeStyle;rounded=0;orthogonalLoop=1;jettySize=auto;html=1;" edge="1" parent="1" source="6TrTIMmduEvKYD4dqYju-2" target="6TrTIMmduEvKYD4dqYju-4">
          <mxGeometry relative="1" as="geometry" />
        </mxCell>
        <mxCell id="6TrTIMmduEvKYD4dqYju-19" value="" style="edgeStyle=orthogonalEdgeStyle;rounded=0;orthogonalLoop=1;jettySize=auto;html=1;" edge="1" parent="1" source="6TrTIMmduEvKYD4dqYju-2" target="6TrTIMmduEvKYD4dqYju-18">
          <mxGeometry relative="1" as="geometry" />
        </mxCell>
        <mxCell id="6TrTIMmduEvKYD4dqYju-20" value="webhook" style="edgeLabel;html=1;align=center;verticalAlign=middle;resizable=0;points=[];" vertex="1" connectable="0" parent="6TrTIMmduEvKYD4dqYju-19">
          <mxGeometry x="-0.2" y="2" relative="1" as="geometry">
            <mxPoint as="offset" />
          </mxGeometry>
        </mxCell>
        <mxCell id="6TrTIMmduEvKYD4dqYju-2" value="Enable Workflows" style="whiteSpace=wrap;html=1;rounded=1;" vertex="1" parent="1">
          <mxGeometry x="360" y="470" width="120" height="60" as="geometry" />
        </mxCell>
        <mxCell id="6TrTIMmduEvKYD4dqYju-7" value="" style="edgeStyle=orthogonalEdgeStyle;rounded=0;orthogonalLoop=1;jettySize=auto;html=1;" edge="1" parent="1" source="6TrTIMmduEvKYD4dqYju-4" target="6TrTIMmduEvKYD4dqYju-6">
          <mxGeometry relative="1" as="geometry" />
        </mxCell>
        <mxCell id="6TrTIMmduEvKYD4dqYju-4" value="Create Workflow" style="whiteSpace=wrap;html=1;rounded=1;" vertex="1" parent="1">
          <mxGeometry x="360" y="570" width="120" height="60" as="geometry" />
        </mxCell>
        <mxCell id="6TrTIMmduEvKYD4dqYju-9" value="" style="edgeStyle=orthogonalEdgeStyle;rounded=0;orthogonalLoop=1;jettySize=auto;html=1;" edge="1" parent="1" source="6TrTIMmduEvKYD4dqYju-6" target="6TrTIMmduEvKYD4dqYju-8">
          <mxGeometry relative="1" as="geometry" />
        </mxCell>
        <mxCell id="6TrTIMmduEvKYD4dqYju-6" value="Simple YAML" style="whiteSpace=wrap;html=1;rounded=1;" vertex="1" parent="1">
          <mxGeometry x="360" y="670" width="120" height="60" as="geometry" />
        </mxCell>
        <mxCell id="6TrTIMmduEvKYD4dqYju-11" value="" style="edgeStyle=orthogonalEdgeStyle;rounded=0;orthogonalLoop=1;jettySize=auto;html=1;" edge="1" parent="1" source="6TrTIMmduEvKYD4dqYju-8" target="6TrTIMmduEvKYD4dqYju-10">
          <mxGeometry relative="1" as="geometry" />
        </mxCell>
        <mxCell id="6TrTIMmduEvKYD4dqYju-12" value="webhook" style="edgeLabel;html=1;align=center;verticalAlign=middle;resizable=0;points=[];" vertex="1" connectable="0" parent="6TrTIMmduEvKYD4dqYju-11">
          <mxGeometry x="-0.16" y="-1" relative="1" as="geometry">
            <mxPoint as="offset" />
          </mxGeometry>
        </mxCell>
        <mxCell id="6TrTIMmduEvKYD4dqYju-8" value="Save YAML to Git" style="whiteSpace=wrap;html=1;rounded=1;" vertex="1" parent="1">
          <mxGeometry x="360" y="770" width="120" height="60" as="geometry" />
        </mxCell>
        <mxCell id="6TrTIMmduEvKYD4dqYju-15" value="" style="edgeStyle=orthogonalEdgeStyle;rounded=0;orthogonalLoop=1;jettySize=auto;html=1;" edge="1" parent="1" source="6TrTIMmduEvKYD4dqYju-10" target="6TrTIMmduEvKYD4dqYju-14">
          <mxGeometry relative="1" as="geometry" />
        </mxCell>
        <mxCell id="6TrTIMmduEvKYD4dqYju-10" value="Argo CD" style="whiteSpace=wrap;html=1;rounded=1;" vertex="1" parent="1">
          <mxGeometry x="150" y="770" width="120" height="60" as="geometry" />
        </mxCell>
        <mxCell id="6TrTIMmduEvKYD4dqYju-17" value="" style="edgeStyle=orthogonalEdgeStyle;rounded=0;orthogonalLoop=1;jettySize=auto;html=1;" edge="1" parent="1" source="6TrTIMmduEvKYD4dqYju-14" target="6TrTIMmduEvKYD4dqYju-16">
          <mxGeometry relative="1" as="geometry" />
        </mxCell>
        <mxCell id="6TrTIMmduEvKYD4dqYju-14" value="Convert YAML to Workflow" style="whiteSpace=wrap;html=1;rounded=1;" vertex="1" parent="1">
          <mxGeometry x="150" y="870" width="120" height="60" as="geometry" />
        </mxCell>
        <mxCell id="6TrTIMmduEvKYD4dqYju-16" value="Argo Workflows" style="whiteSpace=wrap;html=1;rounded=1;" vertex="1" parent="1">
          <mxGeometry x="570" y="870" width="120" height="60" as="geometry" />
        </mxCell>
        <mxCell id="6TrTIMmduEvKYD4dqYju-21" style="edgeStyle=orthogonalEdgeStyle;rounded=0;orthogonalLoop=1;jettySize=auto;html=1;" edge="1" parent="1" source="6TrTIMmduEvKYD4dqYju-18" target="6TrTIMmduEvKYD4dqYju-16">
          <mxGeometry relative="1" as="geometry" />
        </mxCell>
        <mxCell id="6TrTIMmduEvKYD4dqYju-18" value="Trigger Workflow" style="whiteSpace=wrap;html=1;rounded=1;" vertex="1" parent="1">
          <mxGeometry x="570" y="470" width="120" height="60" as="geometry" />
        </mxCell>
      </root>
    </mxGraphModel>
  </diagram>
</mxfile>
